# xmcd
# Track frame offsets:
# 150
# 12895
# 25461
# 36387
# 53612
# 64783
# 85275
# 107916
# 116586
# 130958
# 136590
# 150579
# 164187
# 175608
# 185374
#
# Disc length: 2651 seconds
# Revision: 0
# Processed by: cddbd v1.5.1PL0 Copyright (c) Steve Scherf et al.
# Submitted via: VisiTrax 2.9.10.228 - For more info visit www.synapsa.com
#
DISCID=c60a590f
DTITLE=Various Artist - CB60304
DYEAR=1900
DGENRE=Christmas-Karaoke
TTITLE0=Christmas/Williams, Andy - It's The Most Wonderful Time Of The Year
TTITLE1=Christmas/Boyd, Jimmy - I Saw Mommy Kissing Santa Claus
TTITLE2=Christmas/Page, Patti - BoogieWoogie Santa Claus
TTITLE3=Christmas/Williams, Andy - Twelve Days Of Christmas, The
TTITLE4=Christmas/Presley, Elvis - Winter Wonderland
TTITLE5=Christmas/Carpenters, The - Have Yourself A Merry Little Christmas
TTITLE6=Christmas/Cornelius, - O Holy Night
TTITLE7=Christmas/Sinatra, Frank - Mistletoe And Holly
TTITLE8=Christmas/Murray, Anne - Do You Hear What I Hear
TTITLE9=Christmas Traditional - Christ Was Born On Christmas Day
TTITLE10=Christmas/Williams, Andy - Sweet Little Jesus Boy
TTITLE11=Christmas/Various - It Matters To MeYou're A Mean One, Mr. Grinch
TTITLE12=Christmas/Williams, Andy - Little Drummer Boy, The\tChristmas/Williams
TTITLE12=, Andy
TTITLE13=Christmas/Presley, Elvis - Wonderful World Of Christmas, The
TTITLE14=Christmas Traditional - Go Tell It On The Mountain/We Wish You A
EXTD=
EXTT0=
EXTT1=
EXTT2=
EXTT3=
EXTT4=
EXTT5=
EXTT6=
EXTT7=
EXTT8=
EXTT9=
EXTT10=
EXTT11=
EXTT12=
EXTT13=
EXTT14=
PLAYORDER=
